<?xml version="1.0" encoding="UTF-8" standalone="no"?>
<svg
   xmlns:dc="http://purl.org/dc/elements/1.1/"
   xmlns:cc="http://creativecommons.org/ns#"
   xmlns:rdf="http://www.w3.org/1999/02/22-rdf-syntax-ns#"
   xmlns:svg="http://www.w3.org/2000/svg"
   xmlns="http://www.w3.org/2000/svg"
   xmlns:sodipodi="http://sodipodi.sourceforge.net/DTD/sodipodi-0.dtd"
   xmlns:inkscape="http://www.inkscape.org/namespaces/inkscape"
   id="b64b805f-e6f6-44d8-97ce-775b67d7efb4"
   data-name="Layer 1"
   width="407.67679"
   height="455.31491"
   viewBox="0 0 407.67678 455.31489"
   version="1.1"
   sodipodi:docname="undraw_the_world_is_mine_nb0e.svg"
   inkscape:version="0.92.4 (5da689c313, 2019-01-14)">
  <metadata
     id="metadata59">
    <rdf:RDF>
      <cc:Work
         rdf:about="">
        <dc:format>image/svg+xml</dc:format>
        <dc:type
           rdf:resource="http://purl.org/dc/dcmitype/StillImage" />
        <dc:title>the_world_is_mine</dc:title>
      </cc:Work>
    </rdf:RDF>
  </metadata>
  <defs
     id="defs57" />
  <sodipodi:namedview
     pagecolor="#ffffff"
     bordercolor="#666666"
     borderopacity="1"
     objecttolerance="10"
     gridtolerance="10"
     guidetolerance="10"
     inkscape:pageopacity="0"
     inkscape:pageshadow="2"
     inkscape:window-width="1920"
     inkscape:window-height="1003"
     id="namedview55"
     showgrid="false"
     inkscape:zoom="0.93552981"
     inkscape:cx="118.95961"
     inkscape:cy="127.41457"
     inkscape:window-x="-9"
     inkscape:window-y="-9"
     inkscape:window-maximized="1"
     inkscape:current-layer="b64b805f-e6f6-44d8-97ce-775b67d7efb4"
     fit-margin-top="0"
     fit-margin-left="0"
     fit-margin-right="0"
     fit-margin-bottom="0" />
  <title
     id="title2">the_world_is_mine</title>
  <path
     d="m 407.67678,176.74232 v 0.74072 q -0.0253,2.79029 -0.15993,5.55543 a 123.73453,123.73453 0 0 1 -247.05673,1.61608 q -0.25254,-3.92666 -0.25252,-7.91225 a 123.12162,123.12162 0 0 1 22.75205,-71.52199 q 1.78022,-2.5252 3.70359,-4.95776 c 0.8838,-1.127935 1.79288,-2.230605 2.7104,-3.324845 a 123.75784,123.75784 0 0 1 172.43718,-16.36327 c 1.48986,1.20367 2.95448,2.44942 4.38539,3.72044 q 1.71719,1.52778 3.37535,3.12284 a 123.3999,123.3999 0 0 1 37.67593,78.920805 q 0.42932,5.15134 0.42929,10.4038 z"
     id="path14"
     inkscape:connector-curvature="0"
     style="fill:#6c63ff;stroke-width:1" />
  <path
     d="m 186.66324,100.26256 a 0.68815547,0.68815547 0 0 1 0.16835,0.10101 c 0.66497,0.54712 -0.16835,1.59928 -0.0674,2.46627 0.11784,1.11109 1.59929,1.35519 2.71879,1.46461 1.11951,0.11785 2.53361,1.0185 2.00333,2.01174 -2.81139,0.96799 -5.65644,0.0168 -8.52675,-1.08584 a 123.1218,123.1218 0 0 0 -22.75202,71.52196 q 0,3.9898 0.25253,7.91227 a 3.1980918,3.1980918 0 0 0 0.76597,0.41245 c 0.84173,0.31986 1.81814,0.26094 2.59254,0.71548 0.61446,0.36194 1.02691,1.00165 1.64137,1.33835 1.75922,0.95957 4.20024,-0.88382 5.84162,0.26094 a 15.093263,15.093263 0 0 1 1.20368,1.22893 c 1.51512,1.3131 4.00665,0.42928 5.75745,1.4141 1.12791,0.6313 1.70871,1.89388 2.31476,3.03865 1.5067,2.8619 3.94772,5.67327 7.17155,5.90055 a 19.312555,19.312555 0 0 1 3.04708,0.101 c 0.99324,0.22727 1.96964,1.09425 1.80972,2.09591 -0.27777,1.72555 0.57237,3.61104 0.34511,5.33661 -0.41245,3.15649 -4.88205,4.53693 -5.26082,7.69343 a 19.007936,19.007936 0 0 1 -0.11785,2.07908 c -0.20202,0.8249 -0.8249,1.49829 -1.04375,2.32319 -0.42086,1.5572 0.69864,3.1144 1.91915,4.15816 1.22893,1.05217 2.69355,1.96124 3.36693,3.42586 0.70706,1.5572 0.36195,3.36692 0.58922,5.0588 0.50504,3.69521 3.6952,6.43083 6.97796,8.19847 a 7.285827,7.285827 0 0 1 2.7272,1.98648 c 0.84174,1.22051 0.75756,2.82822 1.04376,4.28438 0.69022,3.56053 3.68678,6.49817 3.77095,10.12603 0.0589,2.58412 -1.37202,4.92414 -2.23059,7.35674 a 16.978199,16.978199 0 0 0 -0.76597,7.94593 124.32736,124.32736 0 0 0 15.2606,11.06878 4.4464818,4.4464818 0 0 0 0.63129,-1.41411 2.7968101,2.7968101 0 0 0 -1.30465,-2.89556 6.9195489,6.9195489 0 0 0 2.41577,-1.54878 2.3697439,2.3697439 0 0 0 0.4377,-2.67671 c 1.48145,0.1852 3.24066,0.27777 4.21708,-0.85857 0.78281,-0.90907 0.7323,-2.27267 0.42086,-3.42585 -0.31141,-1.16159 -0.83331,-2.28109 -0.84173,-3.48477 a 62.682654,62.682654 0 0 0 10.28596,-0.34511 6.677268,6.677268 0 0 0 -3.13124,-3.92247 c 1.54879,-0.26094 2.95448,-2.11275 3.44268,-3.60262 a 9.1762362,9.1762362 0 0 0 0.0674,-4.65478 2.4762018,2.4762018 0 0 1 -0.0505,-1.2121 2.3847866,2.3847866 0 0 1 1.22893,-1.18684 q 3.8383,-2.20954 7.67659,-4.41068 a 4.6281873,4.6281873 0 0 0 1.22893,-0.90064 c 0.79965,-0.95115 0.68183,-2.37368 0.26936,-3.54368 -0.41247,-1.17001 -1.06901,-2.27268 -1.22893,-3.50161 -0.47137,-3.67837 3.46793,-6.3214 4.79787,-9.78934 a 14.702435,14.702435 0 0 0 0.72389,-4.28442 c 0.10943,-1.56562 0.11784,-3.37534 -1.07742,-4.37698 -1.15317,-0.96799 -2.94606,-0.74914 -4.14974,-1.6498 -1.10267,-0.82489 -1.48144,-2.41577 -2.68512,-3.08074 -1.09425,-0.60605 -2.45786,-0.21885 -3.67837,-0.50503 -2.138,-0.49662 -3.48477,-2.9629 -5.67327,-3.19017 -1.22893,-0.13467 -2.62621,0.47137 -3.63629,-0.2441 -0.89223,-0.63972 -0.9259,-1.91073 -1.09425,-2.98815 a 8.3472367,8.3472367 0 0 0 -6.73387,-6.75069 c -1.27101,-0.20202 -2.65145,-0.12626 -3.73729,-0.8249 -1.09425,-0.70705 -1.59087,-2.02857 -2.45786,-3.0134 -1.38044,-1.57403 -3.56894,-2.13799 -5.61435,-2.61778 q -4.16657,-0.9722 -8.32473,-1.95282 c -1.47303,-0.35353 -3.37535,-0.53871 -4.17499,0.75756 a 5.6946111,5.6946111 0 0 0 -0.4882,1.5572 4.8291196,4.8291196 0 0 1 -4.52852,3.4006 5.3507838,5.3507838 0 0 0 -3.14808,-2.44102 19.862521,19.862521 0 0 1 -2.55886,-0.60605 3.5850785,3.5850785 0 0 1 -1.54879,-4.97463 4.4664564,4.4664564 0 0 0 -0.76597,-5.36184 c -1.41412,-1.27105 -3.45952,-1.58246 -5.36184,-1.45619 -0.49662,-1.08585 0.3367,-2.30635 1.22893,-3.09758 0.90064,-0.78281 1.98648,-1.5572 2.18009,-2.73562 0.31142,-1.85181 -2.05383,-3.25753 -3.84672,-2.71038 -1.79289,0.55554 -2.93764,2.29793 -3.6952,4.01506 a 12.108725,12.108725 0 0 1 -1.48986,2.85347 2.9249505,2.9249505 0 0 1 -2.82822,1.16159 c -1.48146,-0.37878 -2.04541,-2.138 -2.37369,-3.61945 a 23.600845,23.600845 0 0 1 -0.79123,-6.06889 7.922345,7.922345 0 0 1 2.28951,-5.52176 c 2.44945,-2.25583 6.2204,-2.03698 9.52839,-1.67506 a 2.4270062,2.4270062 0 0 1 0.25253,-3.19858 3.6367572,3.6367572 0 0 1 3.29959,-0.80804 4.527114,4.527114 0 0 1 2.55044,1.52354 c 0.94274,1.14475 1.21206,2.70195 1.91915,3.99822 0.71547,1.30466 2.31476,2.41577 3.61945,1.71714 1.13633,-0.60605 1.3131,-2.17169 1.03533,-3.42585 -0.28619,-1.24577 -0.88382,-2.46628 -0.78282,-3.74571 0.1936,-2.4326 2.72722,-3.90564 4.95781,-4.9073 2.23058,-1.00165 4.78104,-2.35684 5.13456,-4.781 a 4.4675264,4.4675264 0 0 1 0.26936,-1.38044 2.698611,2.698611 0 0 1 1.00166,-0.94274 c 6.50658,-4.30125 13.13101,-8.66142 20.57192,-11.00986 0.3872,-0.12625 0.42929,0.008 0.8249,-0.0842 0.55554,-0.31985 0.1852,-1.20367 -0.34511,-1.5572 -0.53031,-0.35352 -1.23735,-0.6313 -1.37202,-1.25418 -0.0926,-0.45453 0.17676,-0.90907 0.2441,-1.37202 a 1.7130045,1.7130045 0 0 0 -2.24742,-1.73397 c -0.59764,-0.79123 0.58079,-1.70871 1.54036,-1.97807 a 42.070751,42.070751 0 0 1 8.7961,-1.43095 1.5663231,1.5663231 0 0 1 1.00166,0.16835 1.1903321,1.1903321 0 0 1 0.0758,1.63296 9.2191692,9.2191692 0 0 1 -1.33835,1.22051 3.6766378,3.6766378 0 0 0 -0.95958,3.6952 c 1.55721,0.79123 3.24067,1.60772 4.96621,1.32994 1.71713,-0.27777 3.24066,-2.21375 2.4326,-3.75414 -0.74914,-1.43937 -3.0134,-1.76764 -3.4006,-3.34168 -0.45453,-1.84339 2.15484,-3.48477 1.56563,-5.28608 -0.25252,-0.79122 -1.04375,-1.26259 -1.6498,-1.82655 a 4.9801019,4.9801019 0 0 1 -1.08584,-5.50493 6.2721108,6.2721108 0 0 1 -5.48809,-1.71713 c -1.3131,-1.32152 -2.35685,-3.41743 -4.2255,-3.35009 -1.70871,0.0505 -3.18174,2.0454 -4.78103,1.43936 -0.39562,-0.15152 -0.80804,-0.45454 -1.18684,-0.27777 a 0.9810175,0.9810175 0 0 0 -0.44612,0.7323 c -0.40402,1.9444 0.29461,4.15817 -0.76598,5.84162 -1.15317,1.82656 -3.82146,2.07909 -5.21873,3.72887 -0.75756,0.89224 -1.05217,2.09591 -1.75081,3.03866 -0.69864,0.94274 -2.17169,1.54878 -3.0134,0.72388 a 4.1479402,4.1479402 0 0 0 -1.12792,-5.05039 10.845855,10.845855 0 0 0 -2.49153,-1.21205 14.786676,14.786676 0 0 1 -2.78613,-1.54879 2.760908,2.760908 0 0 1 -1.01849,-1.09426 2.5160275,2.5160275 0 0 1 0.0674,-1.73396 7.0869388,7.0869388 0 0 1 5.63119,-4.66319 c 1.11109,-0.15152 2.40736,-0.10102 3.14808,-0.95116 0.3872,-0.44612 0.58922,-1.12793 1.16159,-1.30466 a 1.6934552,1.6934552 0 0 1 1.069,0.12626 c 1.38886,0.4882 2.7693,0.97641 4.15817,1.46461 a 2.8483516,2.8483516 0 0 0 1.48144,0.2441 0.9964923,0.9964923 0 0 0 0.86699,-1.05216 c -0.13468,-0.69022 -1.19526,-1.0185 -1.09425,-1.71714 a 1.0916596,1.0916596 0 0 1 0.34511,-0.58922 14.873433,14.873433 0 0 1 11.79268,-4.65479 c 0.52187,0.86699 -0.30302,1.88549 -1.00167,2.61779 -0.69022,0.74073 -1.24576,2.05383 -0.40402,2.61779 a 2.2175339,2.2175339 0 0 0 1.10267,0.25252 9.6176865,9.6176865 0 0 1 2.94606,0.89224 c 1.43936,0.62288 2.85347,1.3131 4.23392,2.05382 a 5.3378675,5.3378675 0 0 1 0.101,-2.72721 1.8520377,1.8520377 0 0 1 2.1885,-1.18684 c 0.8249,0.31986 1.24577,1.4141 2.12959,1.51512 1.17001,0.13467 1.63295,-1.59929 1.14475,-2.67671 -0.48821,-1.07742 -1.46461,-1.96965 -1.54037,-3.1565 -0.0589,-0.79122 0.2441,-1.77605 -0.3872,-2.25584 a 1.674489,1.674489 0 0 0 -0.74914,-0.26935 q -7.92911,-1.45199 -15.86664,-2.912385 c -0.94274,-0.17677 -2.29793,-0.0421 -2.34002,0.909065 -0.0252,0.53871 0.45454,1.06899 0.2441,1.5572 -0.22726,0.52187 -0.96799,0.47978 -1.5067,0.66497 a 2.0457402,2.0457402 0 0 0 -1.17844,2.16325 5.8964695,5.8964695 0 0 0 0.99324,2.4326 c -1.03533,-0.42928 -2.59254,-0.50504 -3.62787,-0.94274 a 13.963095,13.963095 0 0 0 -0.90907,-3.49319 1.2329632,1.2329632 0 0 0 -1.6077,-0.99324 c -1.36361,0.21044 -2.72722,0.41245 -4.09083,0.62288 a 1.582333,1.582333 0 0 0 -0.93432,0.36195 c -0.53029,0.56396 -0.008,1.46461 -0.0252,2.23901 a 2.0982421,2.0982421 0 0 1 -1.62454,1.80972 6.1235705,6.1235705 0 0 1 -2.59254,-0.0337 c -1.91073,-0.2946 -3.81304,-0.58922 -5.72378,-0.88382 a 9.3762014,9.3762014 0 0 0 4.32651,-2.89555 c 0.75756,-0.89224 1.16159,-2.55887 0.0674,-2.97972 a 2.6114966,2.6114966 0 0 0 -0.99325,-0.0758 c -2.59253,0.0168 -4.63794,-2.146405 -7.06213,-3.063895 a 6.9418556,6.9418556 0 0 0 -2.3821,-0.4377 z"
     id="path16"
     inkscape:connector-curvature="0"
     style="fill:#3f3d56;stroke-width:1" />
  <path
     d="m 407.51687,183.03847 a 3.0393242,3.0393242 0 0 1 -2.57571,1.22052 c -2.63461,-0.22728 -3.7457,-4.02349 -6.35507,-4.45277 a 1.0169676,1.0169676 0 0 0 -0.69022,0.0674 c -0.3872,0.21043 -0.45454,0.73231 -0.47979,1.17001 -0.10943,2.17168 -0.20201,4.42751 0.64813,6.43083 1.23735,2.92923 4.44435,5.38708 3.77096,8.49307 -3.61944,-1.67506 -5.50492,-5.74063 -6.35507,-9.63782 -0.85857,-3.89723 -0.99324,-7.98804 -2.5252,-11.67483 -1.17001,1.48986 -3.61103,0.26094 -4.67161,-1.30466 -1.01008,-1.48145 -1.63296,-3.19858 -2.60937,-4.70529 -0.97641,-1.49827 -2.47469,-2.84505 -4.25916,-2.92922 -1.87706,-0.0842 -3.51003,1.20367 -4.94096,2.42419 a 11.434762,11.434762 0 0 0 -3.07233,3.41743 c -1.00166,2.02016 -0.74073,4.39384 -0.79122,6.64127 -0.0505,2.42419 -0.56397,4.99147 -2.22218,6.77594 -1.65821,1.77606 -4.7137,2.39894 -6.54025,0.79123 a 7.3782231,7.3782231 0 0 1 -1.82657,-3.29114 160.15276,160.15276 0 0 1 -4.94938,-17.65952 c -0.30302,1.3636 -1.5067,3.12282 -2.65145,2.32318 a 2.3644348,2.3644348 0 0 1 -0.60605,-0.79123 c -2.138,-3.61103 -6.08572,-5.7827 -10.08395,-7.08739 -3.98981,-1.29626 -8.19005,-1.90231 -12.13777,-3.33325 a 31.033354,31.033354 0 0 1 -6.30457,-3.13966 4.9644762,4.9644762 0 0 0 -0.30302,5.06722 4.0591247,4.0591247 0 0 0 4.56218,1.91074 c 0.8754,-0.28619 1.61612,-0.89224 2.4831,-1.19527 0.86698,-0.2946 2.03699,-0.15151 2.41577,0.69022 0.37036,0.79965 -0.1852,1.76767 0.0926,2.60937 0.41245,1.27105 2.34001,1.37203 3.0134,2.53362 a 2.345297,2.345297 0 0 1 -0.6313,2.71037 11.343841,11.343841 0 0 1 -2.54203,1.56563 c -2.82822,1.57404 -4.83996,4.25916 -7.31465,6.34665 -2.47469,2.09591 -5.96788,3.61945 -8.91394,2.2811 0.69864,-3.56053 -3.53528,-6.1699 -4.31809,-9.7136 -0.26094,-1.17 -0.12626,-2.40735 -0.4882,-3.54369 -0.53029,-1.64979 -1.99491,-2.77771 -3.19016,-4.02348 A 15.815167,15.815167 0 0 1 305.81882,148.536 c 0.0674,-1.46461 0.33669,-2.95448 0,-4.38542 -0.32828,-1.42253 -1.51512,-2.80297 -2.97973,-2.74404 -3.34168,0.15151 -7.55875,0.40402 -9.30957,-2.44945 -0.6313,-1.01849 -0.90064,-2.50836 0.008,-3.29114 0.63972,-0.54712 1.58247,-0.49662 2.41577,-0.41245 2.51678,0.2441 5.02514,0.49663 7.54191,0.74072 1.75923,0.16835 3.66155,0.31142 5.17665,-0.60604 1.51511,-0.91746 2.17169,-3.36693 0.76598,-4.45276 -1.01849,-0.79123 -2.85347,-0.74915 -3.15649,-2.00332 -0.24411,-1.05217 0.91749,-2.23901 0.28619,-3.12283 -0.44612,-0.62288 -1.4562,-0.45454 -2.07066,0.0168 a 13.527516,13.527516 0 0 1 -1.74239,1.52353 c -1.20368,0.62288 -2.63462,0.0252 -3.93088,-0.37877 -1.29627,-0.40403 -3.03024,-0.43771 -3.65312,0.76597 -0.70706,1.33835 0.61446,3.10599 -0.0758,4.45276 -0.92591,1.77606 -4.04031,0.76597 -5.33661,2.29793 -1.48144,1.7508 1.01008,4.37698 0.51346,6.61601 a 4.1244536,4.1244536 0 0 1 -4.06556,-0.22727 3.935923,3.935923 0 0 1 -1.7003,-3.66995 c 0.11784,-1.01008 0.64813,-2.04541 0.2946,-2.99657 a 3.4981699,3.4981699 0 0 0 -1.77605,-1.62453 q -3.66155,-2.03278 -7.32309,-4.04873 c -0.68183,1.2626 0.17676,2.8198 1.25418,3.77096 1.06899,0.94274 2.41577,1.65821 3.12282,2.90398 a 3.8167616,3.8167616 0 0 1 -1.43095,5.03355 0.88792174,0.88792174 0 0 1 -0.7323,0.12626 1.0147452,1.0147452 0 0 1 -0.47137,-0.63129 c -1.28785,-3.30801 -3.23225,-6.56552 -6.32985,-8.29107 -3.10599,-1.73397 -7.55875,-1.37202 -9.59575,1.53196 -0.47978,0.69022 -0.80803,1.48144 -1.22893,2.21375 -2.23058,3.88036 -7.02845,5.71536 -11.50647,5.59752 a 2.2176436,2.2176436 0 0 1 -1.25418,-0.29461 c -0.72389,-0.49662 -0.69022,-1.5572 -0.5808,-2.43261 0.15993,-1.23734 0.31142,-2.46627 0.47138,-3.70361 a 2.9661755,2.9661755 0 0 1 0.81648,-2.02858 c 0.83331,-0.65655 2.02857,-0.2441 3.08915,-0.26093 a 3.8913369,3.8913369 0 0 0 3.54369,-2.73563 4.3974097,4.3974097 0 0 0 -1.22893,-4.37699 c -0.47978,-0.45453 -1.12791,-1.0269 -0.8754,-1.64137 a 1.364012,1.364012 0 0 1 0.95116,-0.63972 c 1.89388,-0.54712 3.90564,-0.69022 5.76587,-1.34677 1.86864,-0.64813 3.67836,-1.97807 4.12448,-3.90563 0.13467,-0.58923 0.1936,-1.30466 0.72389,-1.59929 a 2.3442681,2.3442681 0 0 1 0.84173,-0.16835 4.0967622,4.0967622 0 0 0 3.51002,-4.26758 c 0.89224,-0.62288 2.14642,-0.15993 3.01341,0.50504 0.85856,0.66497 1.62453,1.54037 2.6767,1.82656 1.96124,0.5387 3.85513,-1.20368 5.89212,-1.2121 0.85857,0 1.74239,0.30303 2.54204,0.008 0.81647,-0.2946 1.30465,-1.10267 1.92756,-1.70029 0.6313,-0.60605 1.72555,-0.968 2.30635,-0.31986 -0.16835,-1.22052 -0.32828,-2.43261 -0.49662,-3.64471 a 7.1649507,7.1649507 0 0 0 5.83323,-1.06057 c -2.12117,-0.71548 -4.23391,-1.43095 -6.35508,-2.14642 a 1.3713516,1.3713516 0 0 1 -0.59763,-0.31986 c -0.46295,-0.49662 0,-1.27101 0.37037,-1.83498 0.90064,-1.35518 1.05216,-3.585765 -0.42928,-4.259155 -1.01009,-0.46295 -2.16326,0.0926 -3.13125,0.6313 -1.54879,0.85856 -3.09758,1.72555 -4.64636,2.584105 -0.14309,0.88382 0.93432,1.38886 1.59929,1.97808 a 2.6821347,2.6821347 0 0 1 -1.7508,4.68844 3.3600148,3.3600148 0 0 1 0.59763,2.83664 c -1.03534,0.0757 -2.07909,0.15151 -3.12283,0.22726 a 1.3410125,1.3410125 0 0 1 -1.01007,-0.20201 c -0.3367,-0.29461 -0.2862,-0.81648 -0.37037,-1.25418 a 2.7092499,2.7092499 0 0 0 -2.28951,-1.99491 7.9038589,7.9038589 0 0 0 -3.19016,0.29462 1.9438096,1.9438096 0 0 1 -1.38044,-0.0337 1.3770792,1.3770792 0 0 1 -0.53871,-0.69022 3.5194958,3.5194958 0 0 1 0.70705,-3.38375 19.369337,19.369337 0 0 1 2.65988,-2.44943 15.506096,15.506096 0 0 0 4.62111,-7.154725 c 1.71713,-0.72389 3.49318,-1.7003 5.21873,-2.42418 a 20.847682,20.847682 0 0 1 4.33492,-1.4562 20.485128,20.485128 0 0 1 4.25077,-0.20201 c 1.93598,0.0337 3.88036,0.0674 5.81637,0.10942 a 13.997934,13.997934 0 0 1 5.09248,0.73231 c 1.59087,0.65655 2.99656,2.07908 3.10599,3.79621 a 1.1655628,1.1655628 0 0 1 -0.37879,1.06899 1.3639503,1.3639503 0 0 1 -0.7323,0.16835 c -1.60771,0.0505 -2.28952,0.45454 -3.89722,0.51346 1.0185,1.08584 2.16325,2.23059 3.6447,2.42418 2.60937,0.3367 4.48643,-2.36526 5.6901,-4.71369 a 2.2969863,2.2969863 0 0 0 2.39894,2.12958 4.8376665,4.8376665 0 0 0 1.80972,-0.70705 35.599512,35.599512 0 0 1 16.87673,-4.36017 1.8172605,1.8172605 0 0 1 1.38886,-2.00333 c 1.20367,-0.23568 2.28109,0.79965 2.86188,1.87707 0.57238,1.07741 0.93433,2.32317 1.86023,3.13124 0.91749,0.80803 2.69354,0.76597 3.05549,-0.39562 0.35353,-1.1195 -0.81648,-2.07908 -1.78447,-2.74404 -0.97641,-0.65656 -1.99491,-1.87707 -1.33836,-2.85351 4.94939,-1.10267 9.94085,-2.19692 15.0165,-2.41577 a 6.3900925,6.3900925 0 0 0 2.5252,-0.4377 1.9628101,1.9628101 0 0 0 1.17844,-2.07908 5.7390189,5.7390189 0 0 1 -5.97629,-2.25585 c 5.21032,-0.42928 10.66474,-0.80803 15.67304,0.36195 l 4.38542,3.72045 c -0.83331,0.86699 -1.9444,1.68347 -1.33836,2.55045 a 1.8659142,1.8659142 0 0 0 1.54038,0.53029 c 1.06058,0.0168 2.12116,0.0421 3.17333,0.0421 a 123.40016,123.40016 0 0 1 37.67593,78.920805 c -1.76767,-0.0674 -3.39218,2.17169 -3.16493,4.12449 0.26935,2.26429 1.90231,4.0824 3.07233,6.03522 a 9.1972808,9.1972808 0 0 1 0.52188,0.98482 z"
     id="path18"
     inkscape:connector-curvature="0"
     style="fill:#3f3d56;stroke-width:1" />
  <polygon
     transform="matrix(0.70270876,0,0,0.70270876,-61.325056,-0.01335716)"
     style="fill:#ffb9b9;stroke-width:1.42306471"
     points="255.288,625.401 232.67,631.401 191.127,439.38 237.748,435.225 "
     id="polygon66" />
  <polygon
     transform="matrix(0.70270876,0,0,0.70270876,-61.325056,-0.01335716)"
     style="fill:#ffb9b9;stroke-width:1.42306471"
     points="151.804,628.352 128.666,631.848 108.331,436.439 155.126,437.398 "
     id="polygon68" />
  <path
     inkscape:connector-curvature="0"
     style="fill:#ffb9b9;stroke-width:1"
     d="m 36.977463,246.1404 1.501351,28.0252 a 7.1953161,7.1953161 0 0 1 -7.836447,7.55067 v 0 a 7.1953091,7.1953091 0 0 1 -6.516358,-6.53701 L 21.408022,244.19422 0,171.53678 l 0.648727,-46.70835 25.300361,1.29745 z"
     id="path70" />
  <path
     inkscape:connector-curvature="0"
     style="fill:#2f2e41;stroke-width:1"
     d="m 50.600733,314.90547 q -19.009596,-6.60008 -44.113445,-2.5949 c 2.37349,-28.1153 3.74808,-54.22348 2.594907,-75.25238 h 86.280688 z"
     id="path72" />
  <path
     inkscape:connector-curvature="0"
     style="fill:#2f2e41;stroke-width:1"
     d="m 110.93234,314.25675 c -13.062037,6.90973 -31.956617,10.21764 -53.844347,11.67708 L 29.841455,239.0044 96.660343,237.70695 Z"
     id="path74" />
  <path
     inkscape:connector-curvature="0"
     style="fill:#2f2e41;stroke-width:1"
     d="m 144.56692,453.56751 -47.004157,1.74045 c -6.02114,0.22295 -6.33869,-4.9477 -5.20202,-10.86478 l 5.56491,-15.88999 c 12.528957,12.27454 13.708847,12.96051 19.079727,-4.50023 l 16.39165,12.94667 12.13314,2.08012 a 7.2988602,7.2988602 0 0 1 6.06551,7.20533 v 0 a 7.2988602,7.2988602 0 0 1 -7.02876,7.28243 z"
     id="path76" />
  <path
     inkscape:connector-curvature="0"
     style="fill:#2f2e41;stroke-width:1"
     d="m 73.375953,453.56751 -47.00415,1.74045 c -6.021139,0.22295 -6.338694,-4.9477 -5.20202,-10.86478 l 5.564912,-15.88999 c 12.52896,12.27454 13.708843,12.96051 19.079724,-4.50023 l 16.391654,12.94667 12.13314,2.08012 a 7.2988602,7.2988602 0 0 1 6.06551,7.20533 v 0 a 7.2988602,7.2988602 0 0 1 -7.02877,7.28243 z"
     id="path78" />
  <circle
     style="fill:#ffb9b9;stroke-width:1"
     cx="84.334541"
     cy="30.763018"
     r="25.300354"
     id="circle80" />
  <polygon
     transform="matrix(0.70270876,0,0,0.70270876,-61.325056,-0.01335716)"
     style="fill:#ffb9b9;stroke-width:1.42306471"
     points="188.819,107.496 146.353,94.572 174.972,52.105 207.283,65.953 "
     id="polygon82" />
  <path
     inkscape:connector-curvature="0"
     style="fill:#ff6c63;fill-opacity:1;stroke-width:1"
     d="M 99.255263,244.84294 C 68.578593,251.74003 34.524854,249.00368 5.189835,240.95058 12.21473,201.77782 8.823162,159.70137 1.946194,125.47716 -3.436555,98.689205 10.762961,76.210545 34.382528,65.145545 a 65.777862,65.777862 0 0 1 15.725915,-3.54114 c 16.56847,-1.46799 31.14706,10.95535 32.87547,27.4987 z"
     id="path84" />
  <path
     inkscape:connector-curvature="0"
     style="fill:#2f2e41;stroke-width:1"
     d="m 83.980783,34.768995 -3.87597,-1.72257 a 6.6250187,6.6250187 0 0 0 -9.09488,4.38701 v 0 l -5.40155,9.75959 -13.45336,-2.12948 0.46994,-20.66013 A 28.879925,28.879925 0 0 1 87.491843,0.70360284 l 0.36722,0.08307 C 94.426933,2.2724378 102.9533,7.0945588 107.40429,12.156555 l 8.29302,9.43144 a 3.2586292,3.2586292 0 0 1 -2.08424,5.38939 l -11.34208,1.25152 z"
     id="path88" />
  <path
     inkscape:connector-curvature="0"
     style="fill:#ffb9b9;stroke-width:1"
     d="m 97.309073,246.1404 1.50135,28.0252 a 7.1953091,7.1953091 0 0 1 -7.83644,7.55067 v 0 a 7.1953091,7.1953091 0 0 1 -6.51636,-6.53701 l -2.71798,-30.98504 -21.40802,-72.65744 0.64873,-46.70835 25.30032,1.29745 z"
     id="path92" />
  <path
     inkscape:connector-curvature="0"
     style="fill:#2f2e41;fill-opacity:1;stroke-width:1"
     d="m 88.226873,133.26189 c -7.69817,-7.38443 -17.85934,-7.65557 -29.19272,-4.5411 V 93.856805 a 15.73672,15.73672 0 0 1 15.73671,-15.73672 v 0 a 14.410371,14.410371 0 0 1 14.40639,14.74935 z"
     id="path94" />
</svg>
