<?xml version="1.0" encoding="UTF-8" standalone="no"?>
<svg
   xmlns:dc="http://purl.org/dc/elements/1.1/"
   xmlns:cc="http://creativecommons.org/ns#"
   xmlns:rdf="http://www.w3.org/1999/02/22-rdf-syntax-ns#"
   xmlns:svg="http://www.w3.org/2000/svg"
   xmlns="http://www.w3.org/2000/svg"
   xmlns:sodipodi="http://sodipodi.sourceforge.net/DTD/sodipodi-0.dtd"
   xmlns:inkscape="http://www.inkscape.org/namespaces/inkscape"
   id="aced5027-7764-4d9c-85f3-702f4c5cb940"
   data-name="Layer 1"
   width="1000.14899"
   height="500.05157"
   viewBox="0 0 1000.14899 500.05157"
   version="1.1"
   sodipodi:docname="undraw_send_gift_teleport.svg"
   inkscape:version="0.92.4 (5da689c313, 2019-01-14)">
  <metadata
     id="metadata91">
    <rdf:RDF>
      <cc:Work
         rdf:about="">
        <dc:format>image/svg+xml</dc:format>
        <dc:type
           rdf:resource="http://purl.org/dc/dcmitype/StillImage" />
        <dc:title>send_gift</dc:title>
      </cc:Work>
    </rdf:RDF>
  </metadata>
  <defs
     id="defs89" />
  <sodipodi:namedview
     pagecolor="#ffffff"
     bordercolor="#666666"
     borderopacity="1"
     objecttolerance="10"
     gridtolerance="10"
     guidetolerance="10"
     inkscape:pageopacity="0"
     inkscape:pageshadow="2"
     inkscape:window-width="1920"
     inkscape:window-height="1003"
     id="namedview87"
     showgrid="false"
     inkscape:zoom="0.95869396"
     inkscape:cx="190.12187"
     inkscape:cy="361.21391"
     inkscape:window-x="-9"
     inkscape:window-y="-9"
     inkscape:window-maximized="1"
     inkscape:current-layer="aced5027-7764-4d9c-85f3-702f4c5cb940" />
  <title
     id="title2">send_gift</title>
  <rect
     x="0.02399"
     y="484.02579"
     width="299"
     height="2"
     fill="#3f3d56"
     id="rect4" />
  <path
     d="M132.43367,686.93692l-.56866-1.25073c-.12458-.27523-12.39765-27.79381-4.43344-54.39815,7.96462-26.60557,33.33975-42.85309,33.59469-43.01367l1.16258-.733.56825,1.25031c.12458.27523,12.39723,27.7934,4.43344,54.39815-7.96463,26.60558-33.33975,42.85309-33.5947,43.01367Zm-2.70509-54.961c-6.73417,22.49373,1.497,45.70718,3.77041,51.40086,5.02693-3.51214,24.66739-18.40214,31.39453-40.87476,6.7263-22.47013-1.49948-45.70138-3.77041-51.40086C156.09328,594.61536,136.4553,609.50453,129.72858,631.9759Z"
     transform="translate(-99.97601 -199.97421)"
     fill="#3f3d56"
     id="path6" />
  <path
     d="M139.76969,633.1953c6.6724,26.82639-6.89256,53.29279-6.89256,53.29279s-24.38306-17.02777-31.05546-43.85415,6.89255-53.29279,6.89255-53.29279S133.09728,606.36892,139.76969,633.1953Z"
     transform="translate(-99.97601 -199.97421)"
     fill="#6c63ff"
     id="path8"
     style="fill:#ff6363;fill-opacity:1" />
  <rect
     x="225.64899"
     y="399"
     width="774.5"
     height="2"
     fill="#3f3d56"
     id="rect34" />
  <polygon
     points="102.399 460.5 103.399 469.5 94.399 468.5 94.399 457.5 102.399 460.5"
     fill="#ffb8b8"
     id="polygon44" />
  <polygon
     points="196.399 460.5 195.399 469.5 204.399 468.5 204.399 457.5 196.399 460.5"
     fill="#ffb8b8"
     id="polygon46" />
  <path
     d="M201.375,466.47421l-4,103s-13,77-10,79,0,13,0,13l17,2s0-8,4-11,41-144,41-144l38,136s-1,8,2,8,4,11,4,11h17v-11s5-1,2-9-14-177-14-177Z"
     transform="translate(-99.97601 -199.97421)"
     fill="#2f2e41"
     id="path48" />
  <path
     d="M196.375,660.47421s-5-3-7-1-18,22-18,22-22,14-2,18,35-15,36-17-1-18-2-16-4,1-5,0S196.375,660.47421,196.375,660.47421Z"
     transform="translate(-99.97601 -199.97421)"
     fill="#2f2e41"
     id="path50" />
  <path
     d="M302.375,660.47421s5-3,7-1,18,22,18,22,22,14,2,18-35-15-36-17,1-18,2-16,4,1,5,0S302.375,660.47421,302.375,660.47421Z"
     transform="translate(-99.97601 -199.97421)"
     fill="#2f2e41"
     id="path52" />
  <circle
     cx="161.89899"
     cy="98"
     r="20.5"
     fill="#ffb8b8"
     id="circle54" />
  <polygon
     points="148.399 109.5 145.399 140.5 169.399 145.5 175.399 108.5 148.399 109.5"
     fill="#ffb8b8"
     id="polygon56" />
  <path
     d="M273.375,333.47421s-6,13-28-1l-41,134s55,33,90,8l-12-135Z"
     transform="translate(-99.97601 -199.97421)"
     fill="#575a89"
     id="path58" />
  <path
     d="M249.375,318.47421l-19-3-2,13s-26,3-29,13l3,74s-9,16-1,26c0,0-13,27-3,32,0,0,23-11,37-8,0,0,8-2,8-8S249.375,318.47421,249.375,318.47421Z"
     transform="translate(-99.97601 -199.97421)"
     fill="#2f2e41"
     id="path60" />
  <path
     d="M272.375,320.47421l11,3,1,14s27,17,28,27-20,58-20,58,8,14,5,23c0,0,13,26,5,33,0,0-15,4-17-2s-20-75-12-108C273.375,368.47421,265.375,326.47421,272.375,320.47421Z"
     transform="translate(-99.97601 -199.97421)"
     fill="#2f2e41"
     id="path62" />
  <path
     d="M283.875,353.04091h-.37639V342.7298a5.96779,5.96779,0,0,0-5.96781-5.96779H255.68533a5.96779,5.96779,0,0,0-5.96781,5.96779v56.56756a5.96779,5.96779,0,0,0,5.96781,5.9678H277.5308a5.96779,5.96779,0,0,0,5.96781-5.9678V360.38054h.37639Z"
     transform="translate(-99.97601 -199.97421)"
     fill="#3f3d56"
     id="path64" />
  <path
     d="M293.375,393.47421s-8-26-20-18,8,30,8,30Z"
     transform="translate(-99.97601 -199.97421)"
     fill="#ffb8b8"
     id="path66" />
  <path
     d="M238.375,374.47421s14-17,21-9-12,26-12,26Z"
     transform="translate(-99.97601 -199.97421)"
     fill="#ffb8b8"
     id="path68" />
  <path
     d="M202.375,340.47421s-5-1-8,8-14,43-14,49,4,30,26,26,48-32,48-32l-14-21-30,18Z"
     transform="translate(-99.97601 -199.97421)"
     fill="#2f2e41"
     id="path70" />
  <polygon
     points="106.72 166.425 110.899 188 141.899 170 112.899 181 106.505 165.138 106.72 166.425"
     opacity="0.1"
     id="polygon72" />
  <polygon
     points="194.899 188 198.899 191 200.899 177 194.899 188"
     opacity="0.1"
     id="polygon74" />
  <path
     d="M201.875,425.97421s29.37274-7.9907,43.18637-25.49535C245.06137,400.47886,230.875,423.97421,201.875,425.97421Z"
     transform="translate(-99.97601 -199.97421)"
     opacity="0.1"
     id="path76" />
  <path
     d="M275.875,407.97421s6.18509,30.27011,22.09255,31.13506C297.96755,439.10927,278.875,444.97421,275.875,407.97421Z"
     transform="translate(-99.97601 -199.97421)"
     opacity="0.1"
     id="path78" />
  <path
     d="M308.375,360.47421s3,2,5,11,15,43,10,51-13,26-30,14l-17-31,17-16,7,5Z"
     id="path80"
     fill="#2f2e41"
     transform="translate(-99.97601 -199.97421)" />
  <path
     d="M242.195,303.17349s-17.19286-27.86435,1.11989-29.3136a46.68751,46.68751,0,0,0,17.56178-4.7852c6.07025-3.08892,13.71127-5.43681,17.77741-.6818a30.21473,30.21473,0,0,0,6.1465,5.69412c3.57181,2.36878,7.70454,6.20882,5.41608,10.328l-3.75169,6.753-5.2524,13.50608c1.22315-5.82554,1.25391-10.71679-1.87585-13.13092,0,0-17.46167,7.431-26.26172-6.0027C243.22388,278.14928,240.08972,301.41365,242.195,303.17349Z"
     transform="translate(-99.97601 -199.97421)"
     fill="#2f2e41"
     id="path82" />
  <circle
     cx="166.89899"
     cy="157"
     r="5"
     fill="#6c63ff"
     id="circle84"
     style="fill:#ff6363;fill-opacity:1" />
  <path
     inkscape:connector-curvature="0"
     d="M 743.00136,37.551544 H 434.29764 a 2.6032857,41.985949 0 0 0 -2.61613,41.7754 V 363.39967 H 745.61749 V 79.326944 a 2.6032857,41.985949 0 0 0 -2.61613,-41.7754 z"
     id="path905"
     style="fill:#8963ff;fill-opacity:0.21463414;stroke-width:1" />
  <path
     d="M 768.85895,0 H 403.74167 a 3.0790189,5.0252 0 0 0 -3.09422,5 V 39 H 771.95317 V 5 a 3.0790189,5.0252 0 0 0 -3.09422,-5 z"
     id="path12"
     style="fill:#ff6363;fill-opacity:1;stroke-width:1"
     inkscape:connector-curvature="0" />
  <circle
     cx="713.74689"
     cy="19"
     id="circle14"
     r="6.1904802"
     style="fill:#d0cde1" />
  <circle
     cx="733.5564"
     cy="19"
     id="circle16"
     r="6.1904802"
     style="fill:#d0cde1" />
  <circle
     cx="753.36591"
     cy="19"
     id="circle18"
     r="6.1904802"
     style="fill:#d0cde1" />
  <rect
     x="522.91888"
     y="152.81177"
     width="119.45718"
     height="111.69246"
     id="rect36"
     style="fill:#ffa763;fill-opacity:1" />
  <rect
     style="fill:#3f3d56"
     x="570.10443"
     y="149.82533"
     width="25.08601"
     height="118.26261"
     id="rect38" />
  <path
     style="fill:#3f3d56"
     inkscape:connector-curvature="0"
     d="m 579.05128,127.45489 c 8.01033,6.87471 5.55715,22.8725 5.55715,22.8725 0,0 -15.44049,4.85168 -23.45082,-2.023 -8.01033,-6.87468 -5.55714,-22.87251 -5.55714,-22.87251 0,0 15.44049,-4.85171 23.45081,2.02301 z"
     id="path40" />
  <path
     style="fill:#3f3d56"
     inkscape:connector-curvature="0"
     d="m 605.64307,146.79387 c -6.84968,8.03175 -22.85505,5.62852 -22.85505,5.62852 0,0 -4.89986,-15.42527 1.94982,-23.457 6.84968,-8.03173 22.85505,-5.62852 22.85505,-5.62852 0,0 4.89985,15.42525 -1.94982,23.457 z"
     id="path42" />
  <path
     style="fill:#ff6363;fill-opacity:1;stroke-width:1"
     id="path901"
     d="M 769.89334,361.95075 H 403.75036 a 3.0876686,5.0252 0 0 0 -3.10291,5 v 34 h 372.34879 v -34 a 3.0876686,5.0252 0 0 0 -3.1029,-5 z"
     inkscape:connector-curvature="0" />
</svg>
